<?xml version="1.0" encoding="utf-8"?>
<!-- Generator: Adobe Illustrator 17.0.0, SVG Export Plug-In . SVG Version: 6.00 Build 0)  -->
<!DOCTYPE svg PUBLIC "-//W3C//DTD SVG 1.1//EN" "http://www.w3.org/Graphics/SVG/1.1/DTD/svg11.dtd">
<svg version="1.1" id="图层_1" xmlns="http://www.w3.org/2000/svg" xmlns:xlink="http://www.w3.org/1999/xlink" x="0px" y="0px"
	 width="80px" height="80px" viewBox="0 0 80 80" enable-background="new 0 0 80 80" xml:space="preserve">
<g>
	<g>
		<path fill="#2F89FC" d="M20.091,60.211c-0.042,0-0.104,0-0.146,0C10.558,59.024,3.46,50.969,3.46,41.478
			c0-10.282,8.263-18.65,18.483-18.858c2.394-7.951,9.679-13.405,18.046-13.405c4.662,0,9.075,1.686,12.53,4.787
			c1.415-0.687,2.956-1.041,4.538-1.041c5.807,0,10.532,4.725,10.532,10.532c0,0.604-0.062,1.228-0.167,1.832
			c5.641,3.414,9.117,9.512,9.117,16.152c0,8.971-6.39,16.756-15.174,18.504c-0.645,0.125-1.291-0.291-1.436-0.957
			c-0.125-0.666,0.291-1.29,0.957-1.436c7.66-1.519,13.217-8.305,13.217-16.131c0-6.057-3.31-11.594-8.638-14.466
			c-0.5-0.271-0.749-0.833-0.604-1.395c0.187-0.708,0.291-1.436,0.291-2.123c0-4.475-3.643-8.097-8.097-8.097
			c-1.436,0-2.852,0.395-4.1,1.124c-0.479,0.271-1.082,0.208-1.478-0.187c-3.101-3.039-7.181-4.704-11.49-4.704
			c-7.576,0-14.133,5.141-15.944,12.509c-0.146,0.562-0.666,0.937-1.207,0.916l-0.291-0.021c-0.062,0-0.146-0.021-0.208-0.021
			c-9.075,0-16.443,7.368-16.443,16.443c0,8.263,6.182,15.278,14.362,16.319c0.666,0.083,1.145,0.687,1.062,1.353
			C21.215,59.774,20.695,60.211,20.091,60.211z"/>
	</g>
	<g>
		<path fill="#2F89FC" d="M16.594,47.472c-2.643,0-4.808-2.165-4.808-4.808c0-2.643,2.144-4.808,4.808-4.808
			s4.808,2.144,4.808,4.808C21.381,45.308,19.238,47.472,16.594,47.472z M16.594,40.291c-1.311,0-2.373,1.062-2.373,2.373
			c0,1.311,1.062,2.373,2.373,2.373s2.373-1.062,2.373-2.373C18.967,41.353,17.885,40.291,16.594,40.291z"/>
	</g>
	<g>
		<path fill="#2F89FC" d="M34.432,70.785c-2.643,0-4.808-2.165-4.808-4.808c0-2.643,2.144-4.808,4.808-4.808
			c2.643,0,4.808,2.165,4.808,4.808C39.24,68.641,37.076,70.785,34.432,70.785z M34.432,63.624c-1.311,0-2.373,1.062-2.373,2.373
			c0,1.311,1.062,2.373,2.373,2.373c1.311,0,2.373-1.062,2.373-2.373C36.805,64.686,35.743,63.624,34.432,63.624z"/>
	</g>
	<g>
		<path fill="#2F89FC" d="M46.9,70.785c-2.643,0-4.808-2.165-4.808-4.808c0-2.643,2.144-4.808,4.808-4.808
			c2.643,0,4.808,2.165,4.808,4.808C51.708,68.641,49.564,70.785,46.9,70.785z M46.9,63.624c-1.311,0-2.373,1.062-2.373,2.373
			c0,1.311,1.062,2.373,2.373,2.373c1.311,0,2.373-1.062,2.373-2.373C49.294,64.686,48.211,63.624,46.9,63.624z"/>
	</g>
	<g>
		<path fill="#2F89FC" d="M34.432,63.624c-0.666,0-1.207-0.541-1.207-1.207V46.244c0-0.666,0.541-1.207,1.207-1.207
			s1.207,0.541,1.207,1.207v16.152C35.639,63.062,35.098,63.624,34.432,63.624z"/>
	</g>
	<g>
		<path fill="#2F89FC" d="M30.852,43.871H20.174c-0.666,0-1.207-0.541-1.207-1.207s0.541-1.207,1.207-1.207h10.678
			c0.666,0,1.207,0.541,1.207,1.207S31.518,43.871,30.852,43.871z"/>
	</g>
	<g>
		<path fill="#2F89FC" d="M64.759,47.472c-2.643,0-4.808-2.165-4.808-4.808c0-2.643,2.165-4.808,4.808-4.808
			c2.643,0,4.808,2.144,4.808,4.808C69.567,45.308,67.402,47.472,64.759,47.472z M64.759,40.291c-1.311,0-2.373,1.062-2.373,2.373
			c0,1.311,1.062,2.373,2.373,2.373c1.311,0,2.373-1.062,2.373-2.373C67.132,41.353,66.07,40.291,64.759,40.291z"/>
	</g>
	<g>
		<path fill="#2F89FC" d="M46.921,63.624c-0.666,0-1.207-0.541-1.207-1.207V46.244c0-0.666,0.541-1.207,1.207-1.207
			s1.207,0.541,1.207,1.207v16.152C48.128,63.062,47.587,63.624,46.921,63.624z"/>
	</g>
	<g>
		<path fill="#2F89FC" d="M61.179,43.871H50.501c-0.666,0-1.207-0.541-1.207-1.207s0.541-1.207,1.207-1.207h10.678
			c0.666,0,1.207,0.541,1.207,1.207C62.386,43.33,61.845,43.871,61.179,43.871z"/>
	</g>
</g>
<g>
	<path fill="#FFB000" stroke="#FFB000" stroke-width="0.75" stroke-miterlimit="10" d="M42.173,42.774h-3.795
		c-0.26,0-0.471-0.211-0.471-0.471v-2.885c-0.244-0.081-0.471-0.179-0.699-0.284l-2.04,2.04c-0.187,0.187-0.488,0.187-0.666,0
		l-2.682-2.682c-0.089-0.089-0.138-0.211-0.138-0.333s0.049-0.244,0.138-0.333l2.04-2.04c-0.106-0.228-0.203-0.455-0.284-0.699
		h-2.885c-0.26,0-0.471-0.211-0.471-0.471V30.82c0-0.122,0.049-0.244,0.138-0.333c0.089-0.089,0.211-0.138,0.333-0.138h2.893
		c0.081-0.244,0.179-0.471,0.284-0.699l-2.04-2.04c-0.089-0.089-0.138-0.211-0.138-0.333s0.049-0.244,0.138-0.333l2.682-2.69
		c0.179-0.179,0.496-0.179,0.666,0l2.04,2.04c0.228-0.106,0.455-0.203,0.699-0.284v-2.885c0-0.26,0.211-0.471,0.471-0.471h3.795
		c0.26,0,0.471,0.211,0.471,0.471v2.885c0.244,0.081,0.471,0.179,0.699,0.284l2.04-2.04c0.089-0.089,0.211-0.138,0.333-0.138l0,0
		c0.122,0,0.244,0.049,0.333,0.138l2.682,2.69c0.089,0.089,0.138,0.211,0.138,0.333s-0.049,0.244-0.138,0.333l-2.04,2.04
		c0.106,0.228,0.203,0.455,0.284,0.699h2.893c0.26,0,0.471,0.211,0.471,0.471v3.795c0,0.26-0.211,0.471-0.471,0.471h-2.893
		c-0.081,0.236-0.179,0.471-0.284,0.699l2.04,2.04c0.187,0.187,0.187,0.488,0,0.666l-2.682,2.682c-0.187,0.187-0.488,0.187-0.666,0
		l-2.04-2.04c-0.228,0.106-0.455,0.203-0.699,0.284v2.885C42.644,42.562,42.433,42.774,42.173,42.774z M38.849,41.831h2.852v-2.755
		c0-0.211,0.138-0.39,0.341-0.455c0.414-0.122,0.813-0.284,1.17-0.479c0.187-0.098,0.414-0.065,0.561,0.081l1.95,1.95l2.015-2.015
		l-1.95-1.95c-0.146-0.146-0.179-0.374-0.081-0.561c0.195-0.366,0.358-0.756,0.479-1.17c0.057-0.203,0.244-0.341,0.455-0.341h2.763
		v-2.852h-2.763c-0.211,0-0.39-0.138-0.455-0.341c-0.122-0.414-0.284-0.813-0.479-1.17c-0.098-0.187-0.065-0.414,0.081-0.561
		l1.95-1.95l-2.015-2.015l-1.95,1.95c-0.146,0.146-0.374,0.179-0.561,0.081c-0.358-0.195-0.756-0.358-1.17-0.479
		c-0.203-0.057-0.341-0.244-0.341-0.455v-2.755h-2.852v2.755c0,0.211-0.138,0.39-0.341,0.455c-0.414,0.122-0.813,0.284-1.17,0.479
		c-0.187,0.098-0.414,0.065-0.561-0.081l-1.95-1.95l-2.015,2.015l1.95,1.95c0.146,0.146,0.179,0.374,0.081,0.561
		c-0.195,0.358-0.358,0.756-0.488,1.17c-0.057,0.203-0.244,0.341-0.455,0.341h-2.763v2.852h2.755c0.211,0,0.39,0.138,0.455,0.333
		c0.122,0.414,0.284,0.813,0.488,1.178c0.098,0.187,0.065,0.414-0.081,0.561l-1.95,1.95l2.015,2.015l1.95-1.95
		c0.146-0.146,0.374-0.179,0.561-0.081c0.358,0.195,0.756,0.358,1.17,0.479c0.203,0.057,0.341,0.244,0.341,0.455v2.755H38.849z
		 M40.271,37.077c-2.413,0-4.38-1.966-4.38-4.38c0-2.413,1.966-4.38,4.38-4.38c2.413,0,4.38,1.966,4.38,4.38
		C44.651,35.119,42.685,37.077,40.271,37.077z M40.271,29.276c-1.893,0-3.429,1.536-3.429,3.429c0,1.893,1.536,3.429,3.429,3.429
		c1.893,0,3.429-1.536,3.429-3.429C43.701,30.812,42.165,29.276,40.271,29.276z"/>
</g>
</svg>
