<?xml version="1.0" encoding="utf-8"?>
<!-- Generator: Adobe Illustrator 17.0.0, SVG Export Plug-In . SVG Version: 6.00 Build 0)  -->
<!DOCTYPE svg PUBLIC "-//W3C//DTD SVG 1.1//EN" "http://www.w3.org/Graphics/SVG/1.1/DTD/svg11.dtd">
<svg version="1.1" id="图层_1" xmlns="http://www.w3.org/2000/svg" xmlns:xlink="http://www.w3.org/1999/xlink" x="0px" y="0px"
	 width="80px" height="80px" viewBox="0 0 80 80" enable-background="new 0 0 80 80" xml:space="preserve">
<g>
	<g>
		<g>
			<path fill="#081013" d="M40.931,66.604"/>
			<path fill="#2F89FC" d="M79.742,46.605c0.013-0.271-0.115-0.528-0.339-0.681l-6.348-4.675V15.652
				c0-1.623-1.646-2.944-3.671-2.944H64.88c-0.592-1.143-1.786-2.364-3.158-2.364H12.837c-0.428,0-0.775,0.347-0.775,0.775v1.589
				H5.425c-2.024,0-3.67,1.321-3.67,2.944v45.436c0,1.624,1.646,2.945,3.67,2.945h63.96c2.025,0,3.671-1.321,3.671-2.945v0.584
				c0.033-0.009,0.067-0.016,0.1-0.029c0.4-0.152,0.6-0.602,0.446-1.002l-0.035-0.092l-3.501-9.125
				c-0.08-0.209-0.246-0.374-0.457-0.451c-0.21-0.076-0.444-0.059-0.642,0.048l-3.685,2.023V38.182l12.191,8.305l-4.199,2.265
				c-0.186,0.1-0.325,0.274-0.38,0.479c-0.057,0.205-0.025,0.424,0.086,0.606l5.043,8.305l0.021,0.035
				c0.222,0.366,0.7,0.482,1.065,0.26c0.368-0.222,0.485-0.699,0.262-1.066L74.73,49.73l4.604-2.482
				C79.574,47.12,79.727,46.876,79.742,46.605z M14.052,12.903h47.671c1.108,0,1.57,0.901,1.57,2.009v21.803v17.638v0.562H14.052
				V12.903z M9.761,54.828V20.78c0-0.589,1.456-1.349,2.301-1.356v35.404H9.761z M68.935,52.808l1.823,6.696v1.277
				c0,0.755-0.576,0.911-1.724,0.911H5.775c0.02,0-1.68-0.244-1.68-0.999V16.616c0-0.754,0.532-1.392,1.68-1.392h6.286v1.902
				c-1.715,0.009-4.51,1.192-4.51,2.645V56.26c0,0.428,0.348,0.777,0.776,0.777h4.509h51.669h3.502c0.428,0,0.777-0.348,0.777-0.777
				v-3.152L68.935,52.808z M66.838,53.96l0.044,1.087h-1.598v-0.235L66.838,53.96z M65.283,35.866V19.95
				c0.845,0.007,1.466,0.548,1.466,1.137v15.839L65.283,35.866z M68.829,37.983l-0.044-18.211c0-1.454-1.787-2.636-3.502-2.645
				v-2.784c0-0.028-0.003,0.908-0.004,0.881h3.755c1.148,0,1.724,0.638,1.724,1.392v23.137L68.829,37.983z"/>
			<rect x="6.083" y="16.25" fill="#FFFFFF" width="5.917" height="42"/>
			<polygon fill="#FFFFFF" points="70.083,39.134 65.283,35.866 65.283,15.833 70.083,15.833 			"/>
			<polygon fill="#FFFFFF" points="69.417,60.083 65.284,60.083 65.284,54.812 68.935,52.808 			"/>
		</g>
		<g>
			<path fill="#2F89FC" d="M35.664,22.076l-1.05,0.606v6.099l-5.281,3.049v1.212c0,0.286-0.171,0.529-0.415,0.638
				c0.021-0.01,0.043-0.021,0.065-0.033l6.681-3.857c0.217-0.125,0.35-0.356,0.35-0.606V21.47c0-0.024-0.002-0.048-0.005-0.072
				C36.037,21.664,35.91,21.934,35.664,22.076z"/>
			<path fill="#2F89FC" d="M35.738,20.914c0.032,0.024,0.06,0.052,0.088,0.082C35.798,20.966,35.772,20.939,35.738,20.914z"/>
			<path fill="#2F89FC" d="M35.846,21.018c0.026,0.033,0.052,0.065,0.073,0.101C35.899,21.083,35.874,21.051,35.846,21.018z"/>
			<path fill="#2F89FC" d="M35.981,21.264c0.011,0.038,0.021,0.077,0.026,0.116C36.002,21.34,35.992,21.302,35.981,21.264z"/>
			<path fill="#2F89FC" d="M35.921,21.121c0.021,0.036,0.037,0.075,0.05,0.114C35.956,21.195,35.94,21.157,35.921,21.121z"/>
			<path fill="#2F89FC" d="M22.301,20.864l1.049,0.606l0,0l5.282-3.049l5.28,3.049l0,0l1.05-0.606
				c0.246-0.144,0.542-0.117,0.758,0.038c-0.019-0.013-0.038-0.026-0.059-0.038l-6.681-3.859c-0.217-0.125-0.484-0.125-0.699,0
				l-6.68,3.859c-0.021,0.012-0.04,0.025-0.06,0.04C21.758,20.748,22.054,20.721,22.301,20.864z"/>
			<path fill="#2F89FC" d="M27.933,33.042V31.83l-5.281-3.049v-6.099l-1.05-0.606c-0.247-0.144-0.373-0.413-0.345-0.679
				c-0.002,0.024-0.005,0.048-0.005,0.072v7.714c0,0.25,0.133,0.482,0.35,0.606l6.681,3.857c0.021,0.012,0.043,0.023,0.065,0.033
				C28.103,33.571,27.933,33.328,27.933,33.042z"/>
			<path fill="#2F89FC" d="M21.601,22.076l1.05,0.606l5.281,3.049v-0.405c0-0.387,0.313-0.699,0.7-0.699
				c0.386,0,0.7,0.313,0.7,0.699v0.405l5.281-3.049l1.05-0.606c0.247-0.144,0.372-0.413,0.345-0.679
				c-0.001-0.006-0.001-0.012-0.002-0.017c-0.005-0.039-0.015-0.077-0.026-0.116c-0.003-0.01-0.007-0.021-0.011-0.03
				c-0.013-0.039-0.029-0.077-0.05-0.114l-0.001-0.002c0,0,0,0-0.001,0c-0.021-0.037-0.046-0.069-0.073-0.101
				c-0.006-0.007-0.013-0.016-0.021-0.023c-0.028-0.03-0.056-0.058-0.088-0.082c-0.004-0.004-0.011-0.006-0.016-0.011
				c-0.216-0.155-0.512-0.182-0.758-0.038l-1.05,0.606l-5.28,3.049l-5.282-3.049L22.3,20.863c-0.247-0.144-0.543-0.117-0.76,0.04
				c-0.005,0.004-0.01,0.006-0.014,0.01c-0.032,0.024-0.061,0.052-0.088,0.082c-0.007,0.007-0.014,0.016-0.021,0.024
				c-0.026,0.03-0.051,0.063-0.071,0.098l-0.002,0.002v0.002c-0.021,0.036-0.037,0.073-0.051,0.112
				c-0.004,0.01-0.007,0.021-0.01,0.03c-0.012,0.038-0.021,0.077-0.026,0.116c0,0.006,0,0.012-0.002,0.017
				C21.228,21.664,21.355,21.934,21.601,22.076z"/>
			<path fill="#2F89FC" d="M29.332,33.042V31.83v-6.099v-0.405c0-0.387-0.314-0.699-0.7-0.699c-0.387,0-0.7,0.313-0.7,0.699v0.405
				v6.099v1.212c0,0.286,0.171,0.529,0.415,0.638c0.005,0.002,0.011,0.006,0.016,0.007c0.037,0.016,0.075,0.026,0.114,0.037
				c0.011,0.002,0.021,0.004,0.032,0.006c0.041,0.007,0.082,0.012,0.125,0.012s0.083-0.005,0.125-0.012
				c0.01-0.002,0.021-0.004,0.03-0.006c0.04-0.01,0.078-0.021,0.114-0.037c0.006-0.002,0.011-0.005,0.016-0.007
				C29.162,33.571,29.332,33.328,29.332,33.042z"/>
			<path fill="#2F89FC" d="M37.956,18.312h5.057c0.387,0,0.7-0.313,0.7-0.699c0-0.387-0.314-0.701-0.7-0.701h-5.057
				c-0.387,0-0.7,0.314-0.7,0.701C37.257,18,37.57,18.312,37.956,18.312z"/>
			<path fill="#2F89FC" d="M37.956,22.171h16.995c0.386,0,0.699-0.314,0.699-0.701s-0.314-0.699-0.699-0.699H37.956
				c-0.387,0-0.7,0.313-0.7,0.699C37.257,21.857,37.57,22.171,37.956,22.171z"/>
			<path fill="#2F89FC" d="M37.956,26.026h16.995c0.386,0,0.699-0.313,0.699-0.699c0-0.387-0.314-0.699-0.699-0.699H37.956
				c-0.387,0-0.7,0.313-0.7,0.699C37.257,25.714,37.57,26.026,37.956,26.026z"/>
			<path fill="#2F89FC" d="M55.651,29.266c0-0.387-0.314-0.699-0.699-0.699H37.956c-0.387,0-0.7,0.313-0.7,0.699
				c0,0.386,0.314,0.701,0.7,0.701h16.995C55.337,29.966,55.651,29.652,55.651,29.266z"/>
		</g>
	</g>
	<rect x="26.582" y="46.5" fill="#FFFFFF" width="25.418" height="23.5"/>
</g>
<g>
	<path fill="#FF9D00" d="M54.189,72.688c0,0.563-0.029,1.042-0.088,1.439c-0.06,0.397-0.147,0.723-0.265,0.974
		c-0.118,0.253-0.271,0.432-0.459,0.538c-0.188,0.107-0.4,0.16-0.636,0.16H26.479c-0.518,0-0.965-0.039-1.341-0.116
		s-0.683-0.228-0.917-0.451c-0.236-0.223-0.406-0.547-0.512-0.974c-0.106-0.426-0.159-0.979-0.159-1.657
		c0-0.64,0.035-1.188,0.106-1.643c0.07-0.455,0.2-0.862,0.388-1.222c0.188-0.358,0.429-0.707,0.724-1.046
		c0.294-0.34,0.676-0.713,1.147-1.12l7.907-6.978c1.576-1.356,2.847-2.593,3.813-3.707c0.964-1.114,1.717-2.133,2.259-3.054
		c0.542-0.92,0.912-1.769,1.112-2.544c0.2-0.774,0.3-1.512,0.3-2.209c0-0.64-0.123-1.246-0.37-1.817s-0.612-1.071-1.094-1.498
		c-0.482-0.426-1.089-0.76-1.818-1.003c-0.73-0.242-1.588-0.363-2.577-0.363c-1.389,0-2.618,0.146-3.689,0.437
		c-1.071,0.29-2.012,0.615-2.824,0.974c-0.812,0.359-1.489,0.688-2.03,0.988c-0.542,0.301-0.965,0.451-1.271,0.451
		c-0.211,0-0.394-0.059-0.547-0.175c-0.153-0.116-0.277-0.31-0.371-0.581c-0.094-0.271-0.171-0.635-0.229-1.091
		c-0.059-0.455-0.088-1.013-0.088-1.671c0-0.446,0.018-0.819,0.053-1.12c0.036-0.3,0.088-0.562,0.159-0.785
		c0.07-0.222,0.164-0.416,0.282-0.581c0.118-0.164,0.323-0.363,0.618-0.596c0.294-0.232,0.835-0.528,1.624-0.887
		c0.788-0.358,1.759-0.708,2.912-1.047c1.153-0.339,2.424-0.625,3.813-0.858c1.388-0.232,2.835-0.349,4.342-0.349
		c2.376,0,4.454,0.247,6.23,0.741c1.777,0.495,3.254,1.183,4.431,2.064c1.177,0.882,2.053,1.929,2.63,3.14
		c0.576,1.211,0.865,2.515,0.865,3.91c0,1.221-0.142,2.423-0.424,3.605s-0.871,2.457-1.766,3.823s-2.153,2.879-3.776,4.536
		c-1.624,1.657-3.777,3.581-6.46,5.771l-5.331,4.506h18.003c0.234,0,0.452,0.059,0.652,0.175s0.371,0.296,0.512,0.538
		c0.142,0.242,0.247,0.563,0.318,0.959C54.154,71.676,54.189,72.146,54.189,72.688z"/>
</g>
</svg>
