<?xml version="1.0" encoding="utf-8"?>
<!-- Generator: Adobe Illustrator 17.0.0, SVG Export Plug-In . SVG Version: 6.00 Build 0)  -->
<!DOCTYPE svg PUBLIC "-//W3C//DTD SVG 1.1//EN" "http://www.w3.org/Graphics/SVG/1.1/DTD/svg11.dtd">
<svg version="1.1" id="图层_1" xmlns="http://www.w3.org/2000/svg" xmlns:xlink="http://www.w3.org/1999/xlink" x="0px" y="0px"
	 width="80px" height="80px" viewBox="0 0 80 80" enable-background="new 0 0 80 80" xml:space="preserve">
<g>
	<g>
		<g>
			<g>
				<path fill="#2F89FC" d="M74.644,64.103H55.275c-0.665,0-1.203-0.539-1.203-1.203c0-0.665,0.539-1.203,1.203-1.203h18.166V16.972
					H39.145c-0.41,0-0.791-0.208-1.012-0.552l-4.677-7.27H8.057v52.546h25.786c0.665,0,1.203,0.539,1.203,1.203
					c0,0.665-0.539,1.203-1.203,1.203H6.854c-0.665,0-1.203-0.539-1.203-1.203V7.947c0-0.665,0.539-1.203,1.203-1.203h27.259
					c0.41,0,0.791,0.208,1.012,0.552l4.677,7.269h34.842c0.665,0,1.203,0.539,1.203,1.203V62.9
					C75.847,63.564,75.308,64.103,74.644,64.103z"/>
			</g>
			<g>
				<path fill="#2F89FC" d="M39.145,16.972H6.854c-0.665,0-1.203-0.539-1.203-1.203c0-0.665,0.539-1.203,1.203-1.203h32.291
					c0.665,0,1.203,0.539,1.203,1.203S39.809,16.972,39.145,16.972z"/>
			</g>
			<g>
				<path fill="#2F89FC" d="M14.476,64.103c-0.665,0-1.203-0.539-1.203-1.203V21.785c0-0.665,0.539-1.203,1.203-1.203h60.168
					c0.665,0,1.203,0.539,1.203,1.203c0,0.665-0.539,1.203-1.203,1.203H15.679V62.9C15.679,63.564,15.14,64.103,14.476,64.103z"/>
			</g>
			<g>
				<path fill="#2F89FC" d="M29.181,25.803v5.538h2.104c0.189,0,0.36,0.11,0.438,0.281c0.079,0.171,0.051,0.373-0.072,0.516
					l-4.703,5.494c-0.092,0.107-0.226,0.169-0.367,0.169l0,0c-0.141,0-0.275-0.062-0.367-0.169l-4.703-5.494
					c-0.123-0.143-0.151-0.344-0.072-0.516c0.079-0.171,0.25-0.281,0.438-0.281h2.104v-5.539c0-0.267,0.216-0.483,0.483-0.483h4.232
					C28.965,25.321,29.181,25.537,29.181,25.803z M25.216,31.95c0,0.228-0.184,0.412-0.412,0.412h-1.311l3.117,3.641l3.116-3.641
					h-1.312c-0.228,0-0.412-0.184-0.412-0.412v-5.208h-2.787v5.208C25.215,31.95,25.216,31.95,25.216,31.95z"/>
			</g>
		</g>
	</g>
	<path fill="#2F89FC" d="M37.564,27.799h10.623c0.487,0,0.882-0.394,0.882-0.881c0-0.487-0.395-0.883-0.882-0.883H37.564
		c-0.487,0-0.882,0.396-0.882,0.883S37.077,27.799,37.564,27.799z"/>
	<path fill="#2F89FC" d="M37.564,32.66h25.379c0.486,0,0.881-0.396,0.881-0.883s-0.395-0.881-0.881-0.881H37.564
		c-0.487,0-0.882,0.394-0.882,0.881C36.682,32.264,37.077,32.66,37.564,32.66z"/>
</g>
<g>
	<g>
		<circle fill="#2F89FC" cx="22.368" cy="40.567" r="1.504"/>
	</g>
	<g>
		<circle fill="#2F89FC" cx="26.582" cy="40.567" r="1.504"/>
	</g>
	<g>
		<circle fill="#2F89FC" cx="30.796" cy="40.567" r="1.504"/>
	</g>
</g>
<g>
	<path fill="#FF9D00" d="M58.401,74.592c0,0.543-0.035,1.003-0.106,1.381c-0.07,0.378-0.171,0.679-0.3,0.901
		c-0.13,0.223-0.276,0.383-0.441,0.479c-0.165,0.098-0.353,0.146-0.564,0.146H31.785c-0.188,0-0.365-0.048-0.529-0.146
		c-0.165-0.097-0.313-0.257-0.441-0.479c-0.13-0.223-0.229-0.523-0.3-0.901c-0.07-0.378-0.105-0.838-0.105-1.381
		c0-0.563,0.029-1.032,0.088-1.41c0.059-0.378,0.153-0.684,0.283-0.916c0.129-0.232,0.276-0.402,0.441-0.509s0.353-0.16,0.565-0.16
		h8.507V47.115l-7.342,3.344c-0.542,0.214-0.983,0.345-1.324,0.393c-0.342,0.049-0.612-0.01-0.812-0.175
		c-0.2-0.164-0.335-0.45-0.406-0.857c-0.071-0.407-0.106-0.979-0.106-1.716c0-0.465,0.011-0.848,0.035-1.148
		c0.023-0.3,0.082-0.557,0.176-0.77c0.094-0.214,0.224-0.389,0.389-0.524c0.164-0.135,0.388-0.28,0.67-0.436l9.814-5.234
		c0.117-0.078,0.265-0.141,0.441-0.189c0.176-0.048,0.405-0.087,0.688-0.117c0.282-0.029,0.652-0.048,1.111-0.058
		c0.459-0.009,1.053-0.014,1.783-0.014c0.894,0,1.617,0.014,2.171,0.043c0.553,0.029,0.971,0.078,1.253,0.146
		s0.471,0.16,0.564,0.276s0.142,0.262,0.142,0.436v31.082h7.448c0.212,0,0.406,0.054,0.582,0.16c0.177,0.106,0.33,0.276,0.459,0.509
		c0.13,0.232,0.224,0.538,0.283,0.916C58.371,73.56,58.401,74.029,58.401,74.592z"/>
</g>
</svg>
